<?xml version="1.0" encoding="utf-8"?>
<!-- Generator: Adobe Illustrator 21.0.0, SVG Export Plug-In . SVG Version: 6.00 Build 0)  -->
<svg version="1.1" id="Laag_1" xmlns="http://www.w3.org/2000/svg" xmlns:xlink="http://www.w3.org/1999/xlink" x="0px" y="0px"
	 viewBox="0 0 316.1 216.4" style="enable-background:new 0 0 316.1 216.4;" xml:space="preserve">
<style type="text/css">
	.st0{fill:#FF2E00;}
	.st1{fill:#323232;}
</style>
<g>
	<path class="st0" d="M31.9,0C14.3,0,0,14.3,0,31.8v141.3h245.7l43.8-46c5.9-6.6,8.3-9.6,8.3-16.1c0-10-6.3-16.8-15.6-16.8
		c-10.1,0-17.4,7.7-17.4,18.4v1.3h-18.2v-2.1c0-23.3,17.6-35.4,35-35.4c24,0,31.9,14.1,34.4,23.7V0H31.9z M179.8,118.9h-51.2
		c1.1,8.7,8.1,16,19.8,16c6.4,0,14-2.6,18.4-6.8l8,11.7c-6.8,6.3-17.7,9.5-28.4,9.5c-20.9,0-36.8-14.1-36.8-36.2
		c0-19.9,14.7-36,35.6-36c20.5,0,34.5,15.4,34.5,37.9V118.9z M234.6,80.2V96h-15.1v53.2h-18.2V96h-9.2V80.2h9.2v-6.6
		c0-15,10.3-25.4,23.8-25.4c5.1,0,9.8,1.1,13.1,2.8l-4.3,14.2c-1.6-1-3.7-1.4-5.8-1.4c-5.1,0-8.5,3.4-8.5,10v6.3H234.6z"/>
	<path class="st0" d="M145.3,91.4c-11.3,0-16.1,8.4-17,15.2h33.9C161.9,100.1,157.3,91.4,145.3,91.4z"/>
</g>
<path class="st1" d="M316.1,204.3C316.1,204.3,316.1,204.2,316.1,204.3l0-79.4l-43.4,48.3C295.3,173.4,309.7,186.3,316.1,204.3z"/>
<g>
	<path class="st1" d="M12.1,202.5l-3.9,9.8H6.9L3,202.5v9.8H0v-14h4.2l3.4,8.4l3.4-8.4h4.2v14h-3V202.5z"/>
	<path class="st1" d="M24.3,211.2c-0.7,0.8-1.9,1.3-3.2,1.3c-1.6,0-3.5-1.1-3.5-3.4c0-2.4,1.9-3.2,3.5-3.2c1.3,0,2.5,0.4,3.2,1.2
		v-1.4c0-1-0.9-1.7-2.2-1.7c-1.1,0-2.1,0.4-3,1.2l-1-1.8c1.2-1.1,2.8-1.6,4.4-1.6c2.3,0,4.4,0.9,4.4,3.8v6.5h-2.7V211.2z
		 M24.3,208.6c-0.4-0.6-1.3-0.9-2.1-0.9c-1,0-1.9,0.5-1.9,1.5c0,0.9,0.9,1.5,1.9,1.5c0.9,0,1.7-0.3,2.1-0.9V208.6z"/>
	<path class="st1" d="M30,202.2h2.7v1.4c0.7-0.9,2-1.6,3.2-1.6v2.6c-0.2,0-0.4-0.1-0.7-0.1c-0.9,0-2.1,0.5-2.5,1.2v6.7H30V202.2z"/>
	<path class="st1" d="M41.9,208.4l-1.2,1.3v2.6H38v-14h2.7v8.4l3.8-4.5h3.3l-4,4.6l4.1,5.5h-3.3L41.9,208.4z"/>
	<path class="st1" d="M54.1,201.9c3,0,5.1,2.3,5.1,5.6v0.6h-7.5c0.2,1.3,1.2,2.3,2.9,2.3c0.9,0,2.1-0.4,2.7-1l1.2,1.7
		c-1,0.9-2.6,1.4-4.2,1.4c-3.1,0-5.4-2.1-5.4-5.3C48.8,204.3,51,201.9,54.1,201.9z M51.6,206.3h5c-0.1-1-0.7-2.2-2.5-2.2
		C52.4,204,51.7,205.3,51.6,206.3z"/>
	<path class="st1" d="M62,209.8v-5.3h-1.7v-2.3H62v-2.8h2.7v2.8h2.1v2.3h-2.1v4.6c0,0.6,0.3,1.1,0.9,1.1c0.4,0,0.8-0.1,0.9-0.3
		l0.6,2c-0.4,0.4-1.1,0.7-2.2,0.7C63,212.5,62,211.6,62,209.8z"/>
	<path class="st1" d="M68.7,199.5c0-0.9,0.7-1.6,1.6-1.6c0.9,0,1.6,0.7,1.6,1.6c0,0.9-0.7,1.6-1.6,1.6
		C69.4,201.1,68.7,200.4,68.7,199.5z M69,202.2h2.7v10.1H69V202.2z"/>
	<path class="st1" d="M81.5,206.2c0-1.4-0.7-1.9-1.9-1.9c-1,0-1.9,0.6-2.3,1.2v6.8h-2.7v-10.1h2.7v1.3c0.6-0.8,1.9-1.6,3.5-1.6
		c2.2,0,3.3,1.3,3.3,3.2v7.1h-2.7V206.2z"/>
	<path class="st1" d="M88.2,213c0.8,0.9,1.9,1.3,3.2,1.3c1.3,0,2.8-0.6,2.8-2.6v-1c-0.8,1-1.9,1.6-3.1,1.6c-2.5,0-4.5-1.8-4.5-5.2
		c0-3.3,1.9-5.2,4.5-5.2c1.2,0,2.3,0.5,3.1,1.5v-1.3h2.7v9.4c0,3.9-3,4.8-5.5,4.8c-1.7,0-3.1-0.4-4.4-1.5L88.2,213z M94.2,205.4
		c-0.4-0.7-1.4-1.2-2.3-1.2c-1.5,0-2.6,1-2.6,2.8c0,1.7,1,2.8,2.6,2.8c0.9,0,1.8-0.5,2.3-1.2V205.4z"/>
	<path class="st1" d="M101.3,209.1c0.9,0,1.7,0.8,1.7,1.7c0,0.9-0.8,1.7-1.7,1.7s-1.7-0.8-1.7-1.7
		C99.6,209.9,100.3,209.1,101.3,209.1z"/>
	<path class="st1" d="M118.1,198.1c4.2,0,7.3,3,7.3,7.2c0,4.2-3.1,7.2-7.3,7.2c-4.2,0-7.3-3-7.3-7.2
		C110.9,201.1,113.9,198.1,118.1,198.1z M118.1,200.7c-2.6,0-4.2,2-4.2,4.6c0,2.6,1.7,4.6,4.2,4.6c2.6,0,4.3-2,4.3-4.6
		C122.4,202.7,120.7,200.7,118.1,200.7z"/>
	<path class="st1" d="M134.7,206.2c0-1.4-0.7-1.9-1.9-1.9c-1,0-1.9,0.6-2.3,1.2v6.8h-2.7v-10.1h2.7v1.3c0.6-0.8,1.9-1.6,3.5-1.6
		c2.2,0,3.3,1.3,3.3,3.2v7.1h-2.7V206.2z"/>
	<path class="st1" d="M141,209.8v-5.3h-1.7v-2.3h1.7v-2.8h2.7v2.8h2.1v2.3h-2.1v4.6c0,0.6,0.3,1.1,0.9,1.1c0.4,0,0.8-0.1,0.9-0.3
		l0.6,2c-0.4,0.4-1.1,0.7-2.2,0.7C142,212.5,141,211.6,141,209.8z"/>
	<path class="st1" d="M154.7,205.4l-2.1,6.9h-2.8l-3.1-10.1h2.8l1.9,6.8l2.2-6.8h2.4l2.2,6.8l1.9-6.8h2.8l-3.1,10.1h-2.8
		L154.7,205.4z"/>
	<path class="st1" d="M169,201.9c3,0,5.1,2.3,5.1,5.6v0.6h-7.5c0.2,1.3,1.2,2.3,2.9,2.3c0.9,0,2.1-0.4,2.7-1l1.2,1.7
		c-1,0.9-2.6,1.4-4.2,1.4c-3.1,0-5.4-2.1-5.4-5.3C163.8,204.3,166,201.9,169,201.9z M166.6,206.3h5c-0.1-1-0.7-2.2-2.5-2.2
		C167.4,204,166.7,205.3,166.6,206.3z"/>
	<path class="st1" d="M176.5,202.2h2.7v1.4c0.7-0.9,2-1.6,3.2-1.6v2.6c-0.2,0-0.4-0.1-0.7-0.1c-0.9,0-2.1,0.5-2.5,1.2v6.7h-2.7
		V202.2z"/>
	<path class="st1" d="M184.4,216.1v-14h2.7v1.3c0.8-1,1.9-1.5,3.1-1.5c2.6,0,4.5,1.9,4.5,5.3c0,3.4-1.9,5.3-4.5,5.3
		c-1.2,0-2.3-0.5-3.1-1.6v5.2H184.4z M189.4,204.3c-0.9,0-1.8,0.5-2.3,1.2v3.6c0.4,0.6,1.4,1.2,2.3,1.2c1.5,0,2.6-1.2,2.6-3
		C191.9,205.5,190.9,204.3,189.4,204.3z"/>
	<path class="st1" d="M198.4,209.1c0.9,0,1.7,0.8,1.7,1.7c0,0.9-0.8,1.7-1.7,1.7s-1.7-0.8-1.7-1.7
		C196.7,209.9,197.4,209.1,198.4,209.1z"/>
	<path class="st1" d="M211.8,200.9h-4.1v-2.6h11.1v2.6h-4.1v11.4h-3V200.9z"/>
	<path class="st1" d="M223.7,201.9c3,0,5.1,2.3,5.1,5.6v0.6h-7.5c0.2,1.3,1.2,2.3,2.9,2.3c0.9,0,2.1-0.4,2.7-1l1.2,1.7
		c-1,0.9-2.6,1.4-4.2,1.4c-3.1,0-5.4-2.1-5.4-5.3C218.5,204.3,220.6,201.9,223.7,201.9z M221.2,206.3h5c-0.1-1-0.7-2.2-2.5-2.2
		C222,204,221.3,205.3,221.2,206.3z"/>
	<path class="st1" d="M235.8,201.9c2.1,0,3.3,0.9,4,1.8l-1.7,1.6c-0.5-0.7-1.2-1.1-2.1-1.1c-1.6,0-2.7,1.2-2.7,2.9
		c0,1.8,1.1,3,2.7,3c0.9,0,1.7-0.4,2.1-1.1l1.7,1.6c-0.7,0.9-1.9,1.8-4,1.8c-3.1,0-5.4-2.2-5.4-5.3
		C230.5,204.1,232.7,201.9,235.8,201.9z"/>
	<path class="st1" d="M248.8,206.1c0-1.4-0.7-1.8-1.9-1.8c-1,0-1.8,0.6-2.3,1.2v6.8H242v-14h2.7v5.2c0.6-0.8,1.9-1.6,3.6-1.6
		c2.2,0,3.3,1.2,3.3,3.2v7.2h-2.7V206.1z"/>
	<path class="st1" d="M261.4,206.2c0-1.4-0.7-1.9-1.9-1.9c-1,0-1.9,0.6-2.3,1.2v6.8h-2.7v-10.1h2.7v1.3c0.6-0.8,1.9-1.6,3.5-1.6
		c2.2,0,3.3,1.3,3.3,3.2v7.1h-2.7V206.2z"/>
	<path class="st1" d="M266.8,199.5c0-0.9,0.7-1.6,1.6-1.6c0.9,0,1.6,0.7,1.6,1.6c0,0.9-0.7,1.6-1.6,1.6
		C267.5,201.1,266.8,200.4,266.8,199.5z M267.1,202.2h2.7v10.1h-2.7V202.2z"/>
	<path class="st1" d="M277.4,201.9c3,0,5.1,2.3,5.1,5.6v0.6h-7.5c0.2,1.3,1.2,2.3,2.9,2.3c0.9,0,2.1-0.4,2.7-1l1.2,1.7
		c-1,0.9-2.6,1.4-4.2,1.4c-3.1,0-5.4-2.1-5.4-5.3C272.1,204.3,274.3,201.9,277.4,201.9z M274.9,206.3h5c-0.1-1-0.7-2.2-2.5-2.2
		C275.7,204,275,205.3,274.9,206.3z"/>
	<path class="st1" d="M288.7,208.4l-1.2,1.3v2.6h-2.7v-14h2.7v8.4l3.8-4.5h3.3l-4,4.6l4.1,5.5h-3.3L288.7,208.4z"/>
	<path class="st1" d="M297.8,209.1c0.9,0,1.7,0.8,1.7,1.7c0,0.9-0.8,1.7-1.7,1.7c-0.9,0-1.7-0.8-1.7-1.7
		C296.1,209.9,296.8,209.1,297.8,209.1z"/>
</g>
</svg>
