<svg id="Laag_1" data-name="Laag 1" xmlns="http://www.w3.org/2000/svg" viewBox="0 0 737.47 476.58"><defs><style>.cls-1{fill:#fff;}</style></defs><title>160609 EF2 logo wit</title><path class="cls-1" d="M339.07,213.16c-26.27,0-37.57,19.61-39.56,35.57h79.12C377.63,233.44,367,213.16,339.07,213.16Z"/><path class="cls-1" d="M74.28,0A74.49,74.49,0,0,0,0,74.26V404H573.22L675.47,296.55c13.82-15.47,19.44-22.36,19.44-37.59,0-23.42-14.64-39.15-36.44-39.15-23.53,0-40.61,18.06-40.61,42.95v3H575.46v-5c0-54.28,41.08-82.68,81.65-82.68,56.1,0,74.4,32.84,80.35,55.21V0H74.28ZM419.52,277.33H300.17c2.66,20.28,18.95,37.23,46.21,37.23,15,0,32.58-6,42.89-16l18.61,27.26c-16,14.63-41.22,22.27-66.16,22.27-48.87,0-85.77-32.91-85.77-84.44,0-46.54,34.24-84.11,83.11-84.11,47.87,0,80.45,35.9,80.45,88.43v9.31ZM547.33,187v36.9H512.1v124.2H469.55V223.94H448.08V187h21.47V171.59c0-34.91,23.95-59.18,55.53-59.18,12,0,22.94,2.66,30.59,6.65l-10,33.24C542,150,537,149,532.05,149c-12,0-19.95,8-19.95,23.27V187h35.23Z"/><path class="cls-1" d="M737.41,476.58l0.06,0V291.3L636.29,404.09C688.93,404.61,722.61,434.72,737.41,476.58Z"/></svg>